<svg width="19" height="15" viewBox="0 0 19 15" fill="none" xmlns="http://www.w3.org/2000/svg">
<path d="M17.2372 6.6246V2.39346C17.2372 1.46064 16.4782 0.701721 15.5454 0.701721H3.45459C2.52177 0.701721 1.76284 1.46064 1.76284 2.39346V6.6246C0.74768 6.90563 0 7.83707 0 8.94041V12.1553C0 12.4668 0.252566 12.7194 0.564062 12.7194H1.76284V13.7341C1.76284 14.0456 2.01541 14.2982 2.32691 14.2982C2.6384 14.2982 2.89097 14.0456 2.89097 13.7341V12.7194H16.109V13.7341C16.109 14.0456 16.3616 14.2982 16.6731 14.2982C16.9846 14.2982 17.2372 14.0456 17.2372 13.7341V12.7194H18.4359C18.7474 12.7194 19 12.4668 19 12.1553V8.94041C19 7.83707 18.2523 6.90563 17.2372 6.6246ZM2.89097 2.39346C2.89097 2.08271 3.14383 1.82985 3.45459 1.82985H15.5455C15.8562 1.82985 16.1091 2.08271 16.1091 2.39346V6.53732H14.7874V5.40507C14.7874 4.42053 13.9864 3.61956 13.0019 3.61956H10.7215C10.2493 3.61956 9.81966 3.8041 9.50004 4.1045C9.18041 3.80414 8.75076 3.61956 8.27858 3.61956H5.99817C5.01362 3.61956 4.21266 4.42056 4.21266 5.40507V6.53732H2.89097V2.39346ZM13.6593 5.40507V6.53732H10.0641V5.40507C10.0641 5.04255 10.359 4.74768 10.7215 4.74768H13.0019C13.3644 4.74768 13.6593 5.04259 13.6593 5.40507ZM8.9359 5.40507V6.53732H5.34067V5.40507C5.34067 5.04255 5.63562 4.74768 5.99806 4.74768H8.27847C8.64099 4.74768 8.9359 5.04259 8.9359 5.40507ZM17.8719 11.5912H1.12812V8.94041C1.12812 8.23741 1.70005 7.66544 2.40309 7.66544H16.5969C17.2999 7.66544 17.8719 8.23737 17.8719 8.94041V11.5912Z" fill="white"/>
</svg>
