<svg width="19" height="15" viewBox="0 0 19 15" fill="none" xmlns="http://www.w3.org/2000/svg">
<path d="M18.2733 5.6122L17.8592 5.17374L16.4058 1.25601C16.1581 0.594255 15.5248 0.155793 14.8184 0.151733H4.43739C3.73098 0.151733 3.09765 0.594255 2.85 1.25601L1.41688 5.12502L0.820086 5.67716C0.300427 6.11968 0 6.76925 0 7.45131V13.1594C0.00405983 14.0932 0.763248 14.8483 1.69701 14.8483H2.7688C3.70256 14.8483 4.46175 14.0932 4.46581 13.1594V12.3312H14.5342V13.1594C14.5382 14.0932 15.2974 14.8483 16.2312 14.8483H17.303C18.2368 14.8483 18.9959 14.0932 19 13.1594V7.30109C18.9959 6.6637 18.7361 6.05472 18.2733 5.6122ZM3.61325 1.53208C3.74316 1.18699 4.07201 0.963699 4.43739 0.963699H14.8224C15.1878 0.963699 15.5167 1.19105 15.6466 1.53208L16.9132 4.94233H15.9673C15.744 3.4199 14.3271 2.3684 12.8047 2.59575C11.5908 2.77438 10.6368 3.72844 10.4581 4.94233H2.34658L3.61325 1.53208ZM15.1391 4.94233H11.2782C11.5015 3.8746 12.5489 3.19254 13.6167 3.41584C14.3799 3.57823 14.9767 4.17502 15.1391 4.94233ZM3.65385 13.1594C3.64979 13.6466 3.25598 14.0363 2.7688 14.0363H1.69701C1.20983 14.0363 0.816026 13.6466 0.811966 13.1594V12.0957C1.05556 12.2541 1.37628 12.3312 1.69701 12.3312H3.65385V13.1594ZM18.188 13.1594C18.184 13.6466 17.7902 14.0363 17.303 14.0363H16.2312C15.744 14.0363 15.3502 13.6425 15.3462 13.1594V12.3312H17.303C17.6237 12.3312 17.9444 12.2541 18.188 12.0957V13.1594ZM17.303 11.5193H1.69701C1.21389 11.5233 0.816026 11.1376 0.811966 10.6505V7.45131C0.811966 7.00472 1.0109 6.57844 1.35192 6.29019C1.35598 6.28613 1.3641 6.27802 1.36816 6.27396L1.9203 5.7543H17.2949L17.6846 6.17246C17.6887 6.18058 17.7009 6.18464 17.7049 6.19276C18.0094 6.48101 18.184 6.88293 18.184 7.30109V10.6505H18.188C18.184 11.1336 17.7861 11.5233 17.303 11.5193Z" fill="white"/>
</svg>
