<svg width="15" height="13" viewBox="0 0 15 13" fill="none" xmlns="http://www.w3.org/2000/svg">
<path d="M13.7574 1.36524C12.1262 -0.187027 9.47106 -0.187027 7.83932 1.36489L7.50003 1.68715L7.16109 1.36503C5.52917 -0.187086 2.87443 -0.18691 1.24251 1.36503C0.44124 2.12716 0 3.13805 0 4.21119C0 5.28469 0.44124 6.2954 1.24263 7.05786L7.13771 12.6545C7.23911 12.751 7.36966 12.7991 7.5 12.7991C7.63034 12.7991 7.76071 12.7508 7.86229 12.6543L13.7574 7.05786C14.5586 6.29558 15 5.28472 15 4.21137C15 3.13805 14.5586 2.12734 13.7574 1.36524ZM13.0321 6.2947L7.5 11.547L1.96808 6.29488C1.37771 5.73349 1.05264 4.99348 1.05264 4.21137C1.05264 3.42926 1.37771 2.68925 1.96808 2.12787C2.58387 1.5419 3.39264 1.24911 4.20158 1.24911C5.0107 1.24911 5.81982 1.54225 6.43562 2.12822L7.13736 2.79472C7.34051 2.98787 7.65929 2.98787 7.86246 2.79472L8.56438 2.12787C9.79614 0.956107 11.8002 0.956107 13.0319 2.12787C13.6221 2.68928 13.9474 3.42926 13.9474 4.21137C13.9474 4.99348 13.6221 5.73331 13.0321 6.2947Z" fill="#696969"/>
</svg>
